<?xml version="1.0" encoding="UTF-8" standalone="no"?>
<svg
   xmlns:dc="http://purl.org/dc/elements/1.1/"
   xmlns:cc="http://creativecommons.org/ns#"
   xmlns:rdf="http://www.w3.org/1999/02/22-rdf-syntax-ns#"
   xmlns:svg="http://www.w3.org/2000/svg"
   xmlns="http://www.w3.org/2000/svg"
   xmlns:sodipodi="http://sodipodi.sourceforge.net/DTD/sodipodi-0.dtd"
   xmlns:inkscape="http://www.inkscape.org/namespaces/inkscape"
   width="896"
   height="512"
   version="1.1"
   viewBox="0 0 237.07 135.47"
   id="svg62"
   sodipodi:docname="404.svg"
   inkscape:version="0.92.3 (2405546, 2018-03-11)">
  <metadata
     id="metadata68">
    <rdf:RDF>
      <cc:Work
         rdf:about="">
        <dc:format>image/svg+xml</dc:format>
        <dc:type
           rdf:resource="http://purl.org/dc/dcmitype/StillImage" />
        <dc:title></dc:title>
      </cc:Work>
    </rdf:RDF>
  </metadata>
  <defs
     id="defs66" />
  <sodipodi:namedview
     pagecolor="#ffffff"
     bordercolor="#666666"
     borderopacity="1"
     objecttolerance="10"
     gridtolerance="10"
     guidetolerance="10"
     inkscape:pageopacity="0"
     inkscape:pageshadow="2"
     inkscape:window-width="1366"
     inkscape:window-height="705"
     id="namedview64"
     showgrid="false"
     inkscape:zoom="1.8671875"
     inkscape:cx="304.51255"
     inkscape:cy="142.58251"
     inkscape:window-x="-8"
     inkscape:window-y="-8"
     inkscape:window-maximized="1"
     inkscape:current-layer="svg62"
     showguides="true"
     inkscape:guide-bbox="true">
    <sodipodi:guide
       position="33.867593,42.333"
       orientation="1,0"
       id="guide914"
       inkscape:locked="false" />
    <sodipodi:guide
       position="101.59718,76.2"
       orientation="1,0"
       id="guide916"
       inkscape:locked="false" />
    <sodipodi:guide
       position="59.266625,25.4"
       orientation="1,0"
       id="guide918"
       inkscape:locked="false" />
    <sodipodi:guide
       position="135.46182,50.242"
       orientation="1,0"
       id="guide920"
       inkscape:locked="false" />
    <sodipodi:guide
       position="181.94933,92.397"
       orientation="1,0"
       id="guide922"
       inkscape:locked="false" />
  </sodipodi:namedview>
  <path
     inkscape:connector-curvature="0"
     id="path14"
     style="fill:#dcedc8;opacity:0.75"
     d="m 42.334,135.47 16.933,-25.4 v 25.4 z" />
  <path
     inkscape:connector-curvature="0"
     id="path28"
     style="fill:#c8e6c9;opacity:0.75"
     d="m 76.2,135.47 -16.933,-25.4 v 25.4 z" />
  <path
     inkscape:connector-curvature="0"
     id="path16"
     style="fill:#dcedc8"
     d="m 59.264,135.47 42.333,-76.2 v 76.2 z" />
  <path
     inkscape:connector-curvature="0"
     id="path18"
     style="fill:#dcedc8;opacity:0.75"
     d="M 101.714,135.47 135.462,85.228 V 135.47 Z" />
  <path
     inkscape:connector-curvature="0"
     id="path20"
     style="fill:#c8e6c9"
     d="m 143.93,135.47 -42.333,-76.2 v 76.2 z" />
  <path
     inkscape:connector-curvature="0"
     id="path22"
     style="fill:#c8e6c9;opacity:0.75"
     d="M 169.21,135.47 135.462,85.228 v 50.242 z" />
  <path
     inkscape:connector-curvature="0"
     id="path24"
     style="fill:#dcedc8"
     d="M 135.59,135.47 181.95,43.073 V 135.47 Z" />
  <path
     inkscape:connector-curvature="0"
     id="path26"
     style="fill:#c8e6c9"
     d="M 228.31,135.47 181.95,43.073 v 92.397 z" />
  <path
     inkscape:connector-curvature="0"
     id="path30"
     style="fill:#ffffff;stroke:#212121;stroke-width:1.58749998;paint-order:normal"
     d="M 65.617,135.47 V 22.53 h 4.2333 v 112.94" />
  <path
     inkscape:connector-curvature="0"
     id="path32"
     style="fill:#f44336;stroke:#212121;stroke-width:1.58752632;stroke-linecap:round;stroke-linejoin:round;paint-order:normal"
     d="m 92.869168,52.489389 -14.724333,14.724043 -20.823147,-2.6e-5 -14.724043,-14.724334 2.6e-5,-20.823146 14.724333,-14.724044 20.823147,2.7e-5 14.724044,14.724333 z" />
  <path
     inkscape:connector-curvature="0"
     id="path34"
     style="color:#000000;font-variant-ligatures:normal;font-variant-position:normal;font-variant-caps:normal;font-variant-numeric:normal;font-variant-alternates:normal;font-feature-settings:normal;text-indent:0;text-decoration:none;text-decoration-line:none;text-decoration-style:solid;text-decoration-color:#000000;text-transform:none;text-orientation:mixed;dominant-baseline:auto;white-space:normal;shape-padding:0;isolation:auto;mix-blend-mode:normal;solid-color:#000000;fill:#ffffff;paint-order:normal;color-rendering:auto;image-rendering:auto;shape-rendering:auto"
     d="m 58.624,20.08 18.22,5.7e-4 12.884,12.883 -5.66e-4,18.22 -12.883,12.884 -18.221,-1.4e-4 -12.883,-12.883 -4.59e-4,-18.22 z" />
  <path
     inkscape:connector-curvature="0"
     id="path36"
     style="color:#000000;font-variant-ligatures:normal;font-variant-position:normal;font-variant-caps:normal;font-variant-numeric:normal;font-variant-alternates:normal;font-feature-settings:normal;text-indent:0;text-decoration:none;text-decoration-line:none;text-decoration-style:solid;text-decoration-color:#000000;text-transform:none;text-orientation:mixed;dominant-baseline:auto;white-space:normal;shape-padding:0;isolation:auto;mix-blend-mode:normal;solid-color:#000000;fill:#f44336;paint-order:normal;color-rendering:auto;image-rendering:auto;shape-rendering:auto"
     d="m 58.949,20.86 h 17.569 l 12.424,12.423 -0.0015,17.57 -12.423,12.423 H 58.9485 L 46.5255,50.853 46.524,33.284 Z" />
  <path
     inkscape:connector-curvature="0"
     id="path38"
     style="font-variant-ligatures:normal;font-variant-caps:normal;font-variant-numeric:normal;font-feature-settings:normal;fill:#ffffff"
     d="m 56.925,47.99 v -1.8251 h -4.9258 q -0.93218,0 -1.4032,-0.42193 -0.46118,-0.42193 -0.46118,-1.148 0,-0.18643 0.06869,-0.37287 0.06869,-0.19624 0.20606,-0.4023 0.13737,-0.21588 0.28456,-0.41212 0.14718,-0.19625 0.36306,-0.48081 l 5.2006,-6.957 q 0.51024,-0.68687 0.83405,-0.99105 0.33362,-0.314 0.7948,-0.314 1.4915,0 1.4915,1.7074 v 7.5948 h 0.42193 q 0.75555,0 1.2069,0.20606 0.46118,0.20606 0.46118,0.90274 0,0.56912 -0.37287,0.83405 -0.37287,0.25512 -1.1186,0.25512 h -0.59855 v 1.8251 q 0,0.75555 -0.33362,1.1284 -0.33362,0.36306 -0.89292,0.36306 -0.54949,0 -0.89292,-0.37287 -0.33362,-0.38268 -0.33362,-1.1186 z m -4.2193,-4.0231 h 4.2193 v -5.701 z" />
  <path
     inkscape:connector-curvature="0"
     id="path40"
     style="font-variant-ligatures:normal;font-variant-caps:normal;font-variant-numeric:normal;font-feature-settings:normal;fill:#ffffff"
     d="m 72.811,42.18 q 0,1.6092 -0.19625,2.7671 -0.19625,1.1579 -0.72612,2.0998 -0.66724,1.1579 -1.727,1.7858 -1.05976,0.6279 -2.355,0.62799 -1.4915,0 -2.6788,-0.84386 -1.1775,-0.84386 -1.776,-2.3353 -0.30418,-0.81443 -0.45137,-1.7957 -0.13737,-0.99105 -0.13737,-2.1391 0,-1.4817 0.157,-2.669 0.157,-1.1873 0.49062,-2.041 0.57893,-1.413 1.6779,-2.1489 1.1088,-0.74574 2.6395,-0.74574 1.0107,0 1.8349,0.33362 0.82424,0.32381 1.4424,0.96161 0.62799,0.628 1.0597,1.5602 0.74574,1.619 0.74574,4.5824 z m -2.6886,-0.19624 q 0,-1.7957 -0.21587,-2.9339 -0.21587,-1.148 -0.72611,-1.727 -0.51024,-0.58874 -1.413,-0.58874 -1.2952,0 -1.8055,1.305 -0.50043,1.305 -0.50043,4.0231 0,1.8447 0.21587,3.0222 0.21587,1.1775 0.72612,1.7858 0.51024,0.59856 1.3835,0.59856 0.90274,0 1.413,-0.628 0.51024,-0.62799 0.7163,-1.7957 0.20606,-1.1677 0.20606,-3.0614 z" />
  <path
     inkscape:connector-curvature="0"
     id="path42"
     style="font-variant-ligatures:normal;font-variant-caps:normal;font-variant-numeric:normal;font-feature-settings:normal;fill:#ffffff"
     d="m 80.789,47.99 v -1.8251 h -4.9258 q -0.93217,0 -1.4032,-0.42193 -0.46118,-0.42193 -0.46118,-1.148 0,-0.18643 0.06869,-0.37287 0.06869,-0.19624 0.20606,-0.4023 0.13737,-0.21588 0.28456,-0.41212 0.14719,-0.19625 0.36306,-0.48081 l 5.2006,-6.957 q 0.51024,-0.68687 0.83405,-0.99105 0.33362,-0.314 0.7948,-0.314 1.4915,0 1.4915,1.7074 v 7.5948 h 0.42193 q 0.75555,0 1.2069,0.20606 0.46118,0.20606 0.46118,0.90274 0,0.56912 -0.37287,0.83405 -0.37287,0.25512 -1.1186,0.25512 h -0.59855 v 1.8251 q 0,0.75555 -0.33362,1.1284 -0.33362,0.36306 -0.89292,0.36306 -0.54949,0 -0.89292,-0.37287 -0.33362,-0.38268 -0.33362,-1.1186 z m -4.2193,-4.0231 h 4.2193 v -5.701 z" />
  <g
     id="g48"
     style="stroke-width:1.34739995"
     transform="matrix(0.74219,0,0,0.74219,23.746,-124.945)">
    <circle
       id="circle44"
       style="fill:#ffffff;paint-order:normal"
       r="1.0583"
       cy="204.92"
       cx="59.266998" />
    <circle
       id="circle46"
       style="fill:#ffffff;paint-order:normal"
       r="1.0583"
       cy="245.14"
       cx="59.266998" />
  </g>
  <path
     inkscape:connector-curvature="0"
     id="path50"
     style="fill:#ffffff;opacity:0.5"
     d="M 167.37,79.91 181.973,50.806 V 79.91 Z" />
  <path
     inkscape:connector-curvature="0"
     id="path52"
     style="fill:#f9f9f9;opacity:0.5"
     d="M 196.6,79.91 181.997,50.806 V 79.91 Z" />
  <path
     inkscape:connector-curvature="0"
     id="path54"
     style="fill:#ffffff;opacity:0.5"
     d="m 92.193,79.91 9.4074,-16.933 V 79.91 Z" />
  <path
     inkscape:connector-curvature="0"
     id="path56"
     style="fill:#f9f9f9;opacity:0.5"
     d="M 111.01,79.91 101.6026,62.977 V 79.91 Z" />
  <g
     id="g982">
    <path
       d="M 8.46656,50.79936 C 3.7760858,50.79936 0,54.575446 0,59.26592 c 0,4.690474 3.7760858,8.46656 8.46656,8.46656 H 42.3328 c 3.003512,0 5.629998,-1.549619 7.132283,-3.894882 l -9.1124,-9.112929 A 3.1752246,3.1752246 0 0 1 39.423029,52.479866 V 50.79936 Z"
       style="opacity:0.5;fill:#b3e5fc;stroke-width:0.26458001;paint-order:normal"
       id="path2"
       inkscape:connector-curvature="0" />
    <path
       d="m 25.39968,8.46656 c -4.690474,0 -8.46656,3.776086 -8.46656,8.46656 0,4.690474 3.776086,8.46656 8.46656,8.46656 H 44.364774 L 55.07656,14.688423 a 3.1752246,3.1752246 0 0 1 1.008182,-0.679547 3.1752246,3.1752246 0 0 1 1.236594,-0.250629 l 20.822711,-5.29e-4 a 3.1752246,3.1752246 0 0 1 2.244273,0.930687 l 10.711786,10.711256 h 2.031895 c 4.690474,0 8.466559,-3.776085 8.466559,-8.46656 0,-4.690474 -3.776085,-8.4665595 -8.466559,-8.4665595 z"
       style="opacity:0.5;fill:#b3e5fc;stroke-width:0.26458001;paint-order:normal"
       id="path4"
       inkscape:connector-curvature="0" />
    <path
       d="m 96.04254,33.86624 -5.29e-4,16.93312 h 39.422419 c 4.69048,0 8.46656,-3.776086 8.46656,-8.46656 0,-4.690474 -3.77608,-8.46656 -8.46656,-8.46656 z"
       style="opacity:0.5;fill:#b3e5fc;stroke-width:0.26458001;paint-order:normal"
       id="path6"
       inkscape:connector-curvature="0" />
    <rect
       x="152.39999"
       y="8.4700003"
       width="84.667"
       height="16.933001"
       rx="8.4666996"
       ry="8.4666996"
       style="opacity:0.5;fill:#b3e5fc;paint-order:normal"
       id="rect8" />
    <rect
       x="203.2"
       y="59.270004"
       width="25.4"
       height="16.933001"
       rx="8.4666996"
       ry="8.4666996"
       style="opacity:0.5;fill:#b3e5fc;paint-order:normal;font-variant-east_asian:normal;vector-effect:none;fill-opacity:1;stroke-width:0.26458001;stroke-linecap:butt;stroke-linejoin:miter;stroke-miterlimit:4;stroke-dasharray:none;stroke-dashoffset:0;stroke-opacity:1"
       id="rect58" />
  </g>
  <g
     id="g930"
     transform="translate(-4.1632085e-5,-1.92e-6)">
    <path
       inkscape:connector-curvature="0"
       id="path924"
       style="fill:#dcedc8"
       d="m 8.4667,135.47 25.4,-42.333 v 42.333 z" />
    <path
       inkscape:connector-curvature="0"
       id="path926"
       style="fill:#c8e6c9"
       d="m 59.2667,135.47 -25.4,-42.333 v 42.333 z" />
  </g>
</svg>
