<?xml version="1.0" encoding="UTF-8"?>
<svg width="896" height="512" version="1.1" viewBox="0 0 237.07 135.47" xmlns="http://www.w3.org/2000/svg" xmlns:cc="http://creativecommons.org/ns#" xmlns:dc="http://purl.org/dc/elements/1.1/" xmlns:rdf="http://www.w3.org/1999/02/22-rdf-syntax-ns#">
<metadata>
<rdf:RDF>
<cc:Work rdf:about="">
<dc:format>image/svg+xml</dc:format>
<dc:type rdf:resource="http://purl.org/dc/dcmitype/StillImage"/>
<dc:title/>
</cc:Work>
</rdf:RDF>
</metadata>
<path d="m42.334 135.47 16.933-25.4v25.4z" fill="#dcedc8" opacity=".75"/>
<path d="m76.2 135.47-16.933-25.4v25.4z" fill="#c8e6c9" opacity=".75"/>
<path d="m59.264 135.47 42.333-76.2v76.2z" fill="#dcedc8"/>
<path d="m101.71 135.47 33.748-50.242v50.242z" fill="#dcedc8" opacity=".75"/>
<path d="m143.93 135.47-42.333-76.2v76.2z" fill="#c8e6c9"/>
<path d="m169.21 135.47-33.748-50.242v50.242z" fill="#c8e6c9" opacity=".75"/>
<path d="m135.59 135.47 46.36-92.397v92.397z" fill="#dcedc8"/>
<path d="m228.31 135.47-46.36-92.397v92.397z" fill="#c8e6c9"/>
<path d="m65.617 135.47v-112.94h4.2333v112.94" fill="#fff" stroke="#212121" stroke-width="1.5875" style="paint-order:normal"/>
<path d="m92.869 52.489-14.724 14.724-20.823-2.6e-5 -14.724-14.724 2.6e-5 -20.823 14.724-14.724 20.823 2.7e-5 14.724 14.724z" fill="#f44336" stroke="#212121" stroke-linecap="round" stroke-linejoin="round" stroke-width="1.5875" style="paint-order:normal"/>
<path d="m58.624 20.08 18.22 5.7e-4 12.884 12.883-5.66e-4 18.22-12.883 12.884-18.221-1.4e-4 -12.883-12.883-4.59e-4 -18.22z" color="#000000" color-rendering="auto" dominant-baseline="auto" fill="#fff" image-rendering="auto" shape-rendering="auto" solid-color="#000000" style="font-feature-settings:normal;font-variant-alternates:normal;font-variant-caps:normal;font-variant-ligatures:normal;font-variant-numeric:normal;font-variant-position:normal;isolation:auto;mix-blend-mode:normal;paint-order:normal;shape-padding:0;text-decoration-color:#000000;text-decoration-line:none;text-decoration-style:solid;text-indent:0;text-orientation:mixed;text-transform:none;white-space:normal"/>
<path d="m58.949 20.86h17.569l12.424 12.423-0.0015 17.57-12.423 12.423h-17.569l-12.423-12.423-0.0015-17.569z" color="#000000" color-rendering="auto" dominant-baseline="auto" fill="#f44336" image-rendering="auto" shape-rendering="auto" solid-color="#000000" style="font-feature-settings:normal;font-variant-alternates:normal;font-variant-caps:normal;font-variant-ligatures:normal;font-variant-numeric:normal;font-variant-position:normal;isolation:auto;mix-blend-mode:normal;paint-order:normal;shape-padding:0;text-decoration-color:#000000;text-decoration-line:none;text-decoration-style:solid;text-indent:0;text-orientation:mixed;text-transform:none;white-space:normal"/>
<path d="m56.925 47.99v-1.8251h-4.9258q-0.93218 0-1.4032-0.42193-0.46118-0.42193-0.46118-1.148 0-0.18643 0.06869-0.37287 0.06869-0.19624 0.20606-0.4023 0.13737-0.21588 0.28456-0.41212 0.14718-0.19625 0.36306-0.48081l5.2006-6.957q0.51024-0.68687 0.83405-0.99105 0.33362-0.314 0.7948-0.314 1.4915 0 1.4915 1.7074v7.5948h0.42193q0.75555 0 1.2069 0.20606 0.46118 0.20606 0.46118 0.90274 0 0.56912-0.37287 0.83405-0.37287 0.25512-1.1186 0.25512h-0.59855v1.8251q0 0.75555-0.33362 1.1284-0.33362 0.36306-0.89292 0.36306-0.54949 0-0.89292-0.37287-0.33362-0.38268-0.33362-1.1186zm-4.2193-4.0231h4.2193v-5.701z" fill="#fff" style="font-feature-settings:normal;font-variant-caps:normal;font-variant-ligatures:normal;font-variant-numeric:normal"/>
<path d="m72.811 42.18q0 1.6092-0.19625 2.7671t-0.72612 2.0998q-0.66724 1.1579-1.727 1.7858t-2.355 0.62799q-1.4915 0-2.6788-0.84386-1.1775-0.84386-1.776-2.3353-0.30418-0.81443-0.45137-1.7957-0.13737-0.99105-0.13737-2.1391 0-1.4817 0.157-2.669t0.49062-2.041q0.57893-1.413 1.6779-2.1489 1.1088-0.74574 2.6395-0.74574 1.0107 0 1.8349 0.33362 0.82424 0.32381 1.4424 0.96161 0.62799 0.628 1.0597 1.5602 0.74574 1.619 0.74574 4.5824zm-2.6886-0.19624q0-1.7957-0.21587-2.9339-0.21587-1.148-0.72611-1.727-0.51024-0.58874-1.413-0.58874-1.2952 0-1.8055 1.305-0.50043 1.305-0.50043 4.0231 0 1.8447 0.21587 3.0222t0.72612 1.7858q0.51024 0.59856 1.3835 0.59856 0.90274 0 1.413-0.628 0.51024-0.62799 0.7163-1.7957 0.20606-1.1677 0.20606-3.0614z" fill="#fff" style="font-feature-settings:normal;font-variant-caps:normal;font-variant-ligatures:normal;font-variant-numeric:normal"/>
<path d="m80.789 47.99v-1.8251h-4.9258q-0.93217 0-1.4032-0.42193-0.46118-0.42193-0.46118-1.148 0-0.18643 0.06869-0.37287 0.06869-0.19624 0.20606-0.4023 0.13737-0.21588 0.28456-0.41212 0.14719-0.19625 0.36306-0.48081l5.2006-6.957q0.51024-0.68687 0.83405-0.99105 0.33362-0.314 0.7948-0.314 1.4915 0 1.4915 1.7074v7.5948h0.42193q0.75555 0 1.2069 0.20606 0.46118 0.20606 0.46118 0.90274 0 0.56912-0.37287 0.83405-0.37287 0.25512-1.1186 0.25512h-0.59855v1.8251q0 0.75555-0.33362 1.1284-0.33362 0.36306-0.89292 0.36306-0.54949 0-0.89292-0.37287-0.33362-0.38268-0.33362-1.1186zm-4.2193-4.0231h4.2193v-5.701z" fill="#fff" style="font-feature-settings:normal;font-variant-caps:normal;font-variant-ligatures:normal;font-variant-numeric:normal"/>
<g transform="matrix(.74219 0 0 .74219 23.746 -124.94)" fill="#fff" stroke-width="1.3474">
<circle cx="59.267" cy="204.92" r="1.0583" style="paint-order:normal"/>
<circle cx="59.267" cy="245.14" r="1.0583" style="paint-order:normal"/>
</g>
<path d="m167.37 79.91 14.603-29.104v29.104z" fill="#fff" opacity=".5"/>
<path d="m196.6 79.91-14.603-29.104v29.104z" fill="#f9f9f9" opacity=".5"/>
<path d="m92.193 79.91 9.4074-16.933v16.933z" fill="#fff" opacity=".5"/>
<path d="m111.01 79.91-9.4074-16.933v16.933z" fill="#f9f9f9" opacity=".5"/>
<g fill="#b3e5fc">
<path d="m8.4666 50.799c-4.6905 0-8.4666 3.7761-8.4666 8.4666s3.7761 8.4666 8.4666 8.4666h33.866c3.0035 0 5.63-1.5496 7.1323-3.8949l-9.1124-9.1129a3.1752 3.1752 0 0 1-0.92965-2.2448v-1.6805z" opacity=".5" stroke-width=".26458" style="paint-order:normal"/>
<path d="m25.4 8.4666c-4.6905 0-8.4666 3.7761-8.4666 8.4666s3.7761 8.4666 8.4666 8.4666h18.965l10.712-10.711a3.1752 3.1752 0 0 1 1.0082-0.67955 3.1752 3.1752 0 0 1 1.2366-0.25063l20.823-5.29e-4a3.1752 3.1752 0 0 1 2.2443 0.93069l10.712 10.711h2.0319c4.6905 0 8.4666-3.7761 8.4666-8.4666 0-4.6905-3.7761-8.4666-8.4666-8.4666z" opacity=".5" stroke-width=".26458" style="paint-order:normal"/>
<path d="m96.043 33.866-5.29e-4 16.933h39.422c4.6905 0 8.4666-3.7761 8.4666-8.4666s-3.7761-8.4666-8.4666-8.4666z" opacity=".5" stroke-width=".26458" style="paint-order:normal"/>
<rect x="152.4" y="8.47" width="84.667" height="16.933" rx="8.4667" ry="8.4667" opacity=".5" style="paint-order:normal"/>
<rect x="203.2" y="59.27" width="25.4" height="16.933" rx="8.4667" ry="8.4667" opacity=".5" stroke-width=".26458" style="font-variant-east_asian:normal;paint-order:normal"/>
</g>
<g transform="translate(-4.1632e-5 -1.92e-6)">
<path d="m8.4667 135.47 25.4-42.333v42.333z" fill="#dcedc8"/>
<path d="m59.267 135.47-25.4-42.333v42.333z" fill="#c8e6c9"/>
</g>
</svg>
