<?xml version="1.0" encoding="UTF-8" standalone="no"?>
<!-- Created with Inkscape (http://www.inkscape.org/) -->

<svg
   xmlns:dc="http://purl.org/dc/elements/1.1/"
   xmlns:cc="http://creativecommons.org/ns#"
   xmlns:rdf="http://www.w3.org/1999/02/22-rdf-syntax-ns#"
   xmlns:svg="http://www.w3.org/2000/svg"
   xmlns="http://www.w3.org/2000/svg"
   xmlns:sodipodi="http://sodipodi.sourceforge.net/DTD/sodipodi-0.dtd"
   xmlns:inkscape="http://www.inkscape.org/namespaces/inkscape"
   width="512"
   height="512"
   viewBox="0 0 135.46666 135.46667"
   version="1.1"
   id="svg97032"
   inkscape:version="0.92.3 (2405546, 2018-03-11)"
   sodipodi:docname="design_404.svg">
  <defs
     id="defs97026" />
  <sodipodi:namedview
     id="base"
     pagecolor="#ffffff"
     bordercolor="#666666"
     borderopacity="1.0"
     inkscape:pageopacity="0.0"
     inkscape:pageshadow="2"
     inkscape:zoom="0.46679688"
     inkscape:cx="223.40512"
     inkscape:cy="469.75564"
     inkscape:document-units="px"
     inkscape:current-layer="layer1"
     showgrid="true"
     units="px"
     inkscape:pagecheckerboard="true"
     inkscape:snap-bbox="true"
     inkscape:snap-bbox-edge-midpoints="true"
     inkscape:bbox-nodes="true"
     inkscape:snap-global="true"
     inkscape:snap-bbox-midpoints="true"
     inkscape:snap-grids="true"
     inkscape:object-paths="true"
     inkscape:snap-center="false"
     inkscape:window-width="1360"
     inkscape:window-height="705"
     inkscape:window-x="-8"
     inkscape:window-y="-8"
     inkscape:window-maximized="1">
    <inkscape:grid
       type="xygrid"
       id="grid192692"
       spacingx="8.4666666"
       spacingy="8.4666666"
       empspacing="4" />
  </sodipodi:namedview>
  <metadata
     id="metadata97029">
    <rdf:RDF>
      <cc:Work
         rdf:about="">
        <dc:format>image/svg+xml</dc:format>
        <dc:type
           rdf:resource="http://purl.org/dc/dcmitype/StillImage" />
        <dc:title></dc:title>
      </cc:Work>
    </rdf:RDF>
  </metadata>
  <g
     inkscape:label="Capa 1"
     inkscape:groupmode="layer"
     id="layer1"
     transform="translate(0,-161.53331)">
    <rect
       style="opacity:1;vector-effect:none;fill:#ffffff;fill-opacity:0.36453202;stroke:#ff0000;stroke-width:0.52916664;stroke-linecap:round;stroke-linejoin:round;stroke-miterlimit:4;stroke-dasharray:none;stroke-dashoffset:0;stroke-opacity:1;paint-order:normal"
       id="rect192716"
       width="8.4666662"
       height="8.4666662"
       x="186.26666"
       y="263.1333" />
    <rect
       style="opacity:1;vector-effect:none;fill:#ffffff;fill-opacity:0.36453202;stroke:#ff0000;stroke-width:0.52916664;stroke-linecap:round;stroke-linejoin:round;stroke-miterlimit:4;stroke-dasharray:none;stroke-dashoffset:0;stroke-opacity:1;paint-order:normal"
       id="rect192718"
       width="8.4666662"
       height="8.4666662"
       x="186.26666"
       y="254.66664" />
    <rect
       style="opacity:1;vector-effect:none;fill:#ffffff;fill-opacity:0.36453202;stroke:#ff0000;stroke-width:0.52916664;stroke-linecap:round;stroke-linejoin:round;stroke-miterlimit:4;stroke-dasharray:none;stroke-dashoffset:0;stroke-opacity:1;paint-order:normal"
       id="rect192720"
       width="16.933332"
       height="16.933332"
       x="194.73334"
       y="254.66664" />
    <rect
       style="opacity:1;vector-effect:none;fill:#ffffff;fill-opacity:0.36453202;stroke:#ff0000;stroke-width:0.52916664;stroke-linecap:round;stroke-linejoin:round;stroke-miterlimit:4;stroke-dasharray:none;stroke-dashoffset:0;stroke-opacity:1;paint-order:normal"
       id="rect192722"
       width="25.4"
       height="25.4"
       x="186.26666"
       y="271.59998" />
    <rect
       style="opacity:1;vector-effect:none;fill:#ffffff;fill-opacity:0.36453202;stroke:#ff0000;stroke-width:0.52916664;stroke-linecap:round;stroke-linejoin:round;stroke-miterlimit:4;stroke-dasharray:none;stroke-dashoffset:0;stroke-opacity:1;paint-order:normal"
       id="rect192724"
       width="42.333332"
       height="42.333332"
       x="143.93333"
       y="254.66664" />
    <rect
       style="opacity:1;vector-effect:none;fill:#ffffff;fill-opacity:0.36453202;stroke:#ff0000;stroke-width:0.52916664;stroke-linecap:round;stroke-linejoin:round;stroke-miterlimit:4;stroke-dasharray:none;stroke-dashoffset:0;stroke-opacity:1;paint-order:normal"
       id="rect192726"
       width="67.73333"
       height="67.73333"
       x="143.93333"
       y="186.9333" />
    <rect
       style="opacity:1;vector-effect:none;fill:#ffffff;fill-opacity:0.36453202;stroke:#ff0000;stroke-width:0.52916664;stroke-linecap:round;stroke-linejoin:round;stroke-miterlimit:4;stroke-dasharray:none;stroke-dashoffset:0;stroke-opacity:1;paint-order:normal"
       id="rect192776"
       width="110.06667"
       height="110.06667"
       x="211.66666"
       y="186.9333" />
    <path
       style="opacity:1;vector-effect:none;fill:none;fill-opacity:1;stroke:#000000;stroke-width:0.52916664;stroke-linecap:round;stroke-linejoin:round;stroke-miterlimit:4;stroke-dasharray:none;stroke-dashoffset:0;stroke-opacity:1;paint-order:normal"
       id="path192740"
       sodipodi:type="arc"
       sodipodi:cx="194.73334"
       sodipodi:cy="263.1333"
       sodipodi:rx="8.4666662"
       sodipodi:ry="8.4666662"
       sodipodi:start="1.5707963"
       sodipodi:end="4.712389"
       d="m 194.73334,271.59997 a 8.4666662,8.4666662 0 0 1 -7.33235,-4.23334 8.4666662,8.4666662 0 0 1 0,-8.46666 8.4666662,8.4666662 0 0 1 7.33235,-4.23334"
       sodipodi:open="true" />
    <path
       d="m -194.73321,-254.66664 a 16.933207,16.933218 0 0 1 -11.97359,-4.95962 16.933207,16.933218 0 0 1 -4.95962,-11.97359"
       sodipodi:end="3.1415927"
       sodipodi:start="1.5707963"
       sodipodi:ry="16.933218"
       sodipodi:rx="16.933207"
       sodipodi:cy="-271.59985"
       sodipodi:cx="-194.73322"
       sodipodi:type="arc"
       id="path192759"
       style="opacity:1;vector-effect:none;fill:none;fill-opacity:1;stroke:#000000;stroke-width:0.52916664;stroke-linecap:round;stroke-linejoin:round;stroke-miterlimit:4;stroke-dasharray:none;stroke-dashoffset:0;stroke-opacity:1;paint-order:normal"
       transform="scale(-1)"
       sodipodi:open="true" />
    <path
       transform="rotate(-90)"
       style="opacity:1;vector-effect:none;fill:none;fill-opacity:1;stroke:#000000;stroke-width:0.52916664;stroke-linecap:round;stroke-linejoin:round;stroke-miterlimit:4;stroke-dasharray:none;stroke-dashoffset:0;stroke-opacity:1;paint-order:normal"
       id="path192761"
       sodipodi:type="arc"
       sodipodi:cx="-271.59998"
       sodipodi:cy="186.26666"
       sodipodi:rx="25.4"
       sodipodi:ry="25.400002"
       sodipodi:start="1.5707963"
       sodipodi:end="3.1415927"
       d="m -271.59997,211.66666 a 25.4,25.400002 0 0 1 -17.96052,-7.43948 25.4,25.400002 0 0 1 -7.43949,-17.96052"
       sodipodi:open="true" />
    <path
       d="m 186.26666,296.99999 a 42.333336,42.333336 0 0 1 -29.93419,-12.39914 42.333336,42.333336 0 0 1 -12.39914,-29.9342"
       sodipodi:end="3.1415927"
       sodipodi:start="1.5707963"
       sodipodi:ry="42.333336"
       sodipodi:rx="42.333336"
       sodipodi:cy="254.66666"
       sodipodi:cx="186.26666"
       sodipodi:type="arc"
       id="path192763"
       style="opacity:1;vector-effect:none;fill:none;fill-opacity:1;stroke:#000000;stroke-width:0.5291667;stroke-linecap:round;stroke-linejoin:round;stroke-miterlimit:4;stroke-dasharray:none;stroke-dashoffset:0;stroke-opacity:1;paint-order:normal"
       sodipodi:open="true" />
    <path
       sodipodi:open="true"
       style="opacity:1;vector-effect:none;fill:none;fill-opacity:1;stroke:#000000;stroke-width:0.5291667;stroke-linecap:round;stroke-linejoin:round;stroke-miterlimit:4;stroke-dasharray:none;stroke-dashoffset:0;stroke-opacity:1;paint-order:normal"
       id="path192774"
       sodipodi:type="arc"
       sodipodi:cx="254.66663"
       sodipodi:cy="-211.39832"
       sodipodi:rx="67.468727"
       sodipodi:ry="67.464981"
       sodipodi:start="1.5707963"
       sodipodi:end="3.1415927"
       d="m 254.66663,-143.93333 a 67.468727,67.464981 0 0 1 -47.7076,-19.76004 67.468727,67.464981 0 0 1 -19.76113,-47.70495"
       transform="rotate(90)" />
    <path
       transform="scale(-1)"
       d="m -211.66665,-186.93331 a 110.06666,110.06666 0 0 1 -77.82889,-32.23778 110.06666,110.06666 0 0 1 -32.23777,-77.82888"
       sodipodi:end="3.1415927"
       sodipodi:start="1.5707963"
       sodipodi:ry="110.06666"
       sodipodi:rx="110.06666"
       sodipodi:cy="-296.99997"
       sodipodi:cx="-211.66666"
       sodipodi:type="arc"
       id="path192778"
       style="opacity:1;vector-effect:none;fill:none;fill-opacity:1;stroke:#000000;stroke-width:0.5291667;stroke-linecap:round;stroke-linejoin:round;stroke-miterlimit:4;stroke-dasharray:none;stroke-dashoffset:0;stroke-opacity:1;paint-order:normal"
       sodipodi:open="true" />
    <path
       sodipodi:open="true"
       d="m -271.59997,211.66666 a 25.4,25.400002 0 0 1 -17.96052,-7.43948 25.4,25.400002 0 0 1 -7.43949,-17.96052"
       sodipodi:end="3.1415927"
       sodipodi:start="1.5707963"
       sodipodi:ry="25.400002"
       sodipodi:rx="25.4"
       sodipodi:cy="186.26666"
       sodipodi:cx="-271.59998"
       sodipodi:type="arc"
       id="path192798"
       style="opacity:1;vector-effect:none;fill:none;fill-opacity:1;stroke:#000000;stroke-width:0.52916664;stroke-linecap:round;stroke-linejoin:round;stroke-miterlimit:4;stroke-dasharray:none;stroke-dashoffset:0;stroke-opacity:1;paint-order:normal"
       transform="rotate(-90)" />
    <path
       style="opacity:1;vector-effect:none;fill:#ffffff;fill-opacity:1;stroke:none;stroke-width:2.00000024;stroke-linecap:round;stroke-linejoin:round;stroke-miterlimit:4;stroke-dasharray:none;stroke-dashoffset:0;stroke-opacity:1;paint-order:normal"
       d="M 347.16016 128 A 62.080536 62.080536 0 0 0 341.17188 128.30078 A 62.080536 62.080536 0 0 0 335.03516 129.22656 A 62.080536 62.080536 0 0 0 329.02344 130.76172 A 62.080536 62.080536 0 0 0 323.19336 132.89062 A 62.080536 62.080536 0 0 0 317.60742 135.58984 A 62.080536 62.080536 0 0 0 312.31641 138.83398 A 62.080536 62.080536 0 0 0 307.37695 142.58789 A 62.080536 62.080536 0 0 0 302.83594 146.81836 A 62.080536 62.080536 0 0 0 298.74023 151.48047 A 62.080536 62.080536 0 0 0 295.13086 156.52734 A 62.080536 62.080536 0 0 0 292.04297 161.91016 A 62.080536 62.080536 0 0 0 289.50781 167.57422 A 62.080536 62.080536 0 0 0 287.55078 173.46289 A 62.080536 62.080536 0 0 0 286.19141 179.51953 A 62.080536 62.080536 0 0 0 285.57812 184.58789 A 98.935326 98.940821 0 0 0 285.28906 190.07031 A 98.935326 98.940821 0 0 0 285.28906 190.08594 A 62.080536 62.080536 0 0 0 285.52344 194.76758 A 98.935326 98.940821 0 0 0 285.625 196.42969 A 98.935326 98.940821 0 0 0 378.20508 288.70898 A 98.935326 98.940821 0 0 0 384 288.99805 L 384 289 A 62.080536 62.080536 0 0 0 389.98828 288.69922 A 62.080536 62.080536 0 0 0 396.12305 287.77344 A 62.080536 62.080536 0 0 0 402.13672 286.23633 A 62.080536 62.080536 0 0 0 407.96484 284.10938 A 62.080536 62.080536 0 0 0 413.55273 281.41016 A 62.080536 62.080536 0 0 0 418.84375 278.16797 A 62.080536 62.080536 0 0 0 423.7832 274.41211 A 62.080536 62.080536 0 0 0 428.32422 270.18164 A 62.080536 62.080536 0 0 0 432.41992 265.51953 A 62.080536 62.080536 0 0 0 436.0293 260.47266 A 62.080536 62.080536 0 0 0 439.11523 255.08984 A 62.080536 62.080536 0 0 0 441.65039 249.42383 A 62.080536 62.080536 0 0 0 443.60742 243.53711 A 62.080536 62.080536 0 0 0 444.9668 237.48047 A 62.080536 62.080536 0 0 0 445.58203 232.4082 A 98.935326 98.940821 0 0 0 445.87109 226.92969 A 98.935326 98.940821 0 0 0 445.63086 222.1543 A 62.080536 62.080536 0 0 0 445.62891 222.12891 A 62.080536 62.080536 0 0 0 445.56055 220.73242 A 62.080536 62.080536 0 0 0 445.53711 220.57812 A 98.935326 98.940821 0 0 1 445.53711 220.57617 A 98.935326 98.940821 0 0 0 352.94531 128.28906 A 98.935326 98.940821 0 0 0 347.16016 128 z M 318 192.42773 A 15.999999 15.999999 0 0 1 334 208.42773 A 15.999999 15.999999 0 0 1 318 224.42773 A 15.999999 15.999999 0 0 1 302 208.42773 A 15.999999 15.999999 0 0 1 318 192.42773 z "
       transform="matrix(0.26458333,0,0,0.26458333,0,161.53331)"
       id="path192966" />
    <path
       style="opacity:1;vector-effect:none;fill:#ffffff;fill-opacity:1;stroke:none;stroke-width:2.00000024;stroke-linecap:round;stroke-linejoin:round;stroke-miterlimit:4;stroke-dasharray:none;stroke-dashoffset:0;stroke-opacity:1;paint-order:normal"
       d="M 162.40039 128 A 98.935326 98.940821 0 0 0 156.61328 128.28906 A 98.935326 98.940821 0 0 0 64.023438 220.57617 A 98.935326 98.940821 0 0 0 64.023438 220.57812 A 62.080536 62.080536 0 0 0 64 220.73242 A 62.080536 62.080536 0 0 0 63.929688 222.12891 A 62.080536 62.080536 0 0 0 63.929688 222.1543 A 98.935326 98.940821 0 0 0 63.689453 226.92969 A 98.935326 98.940821 0 0 0 63.976562 232.4082 A 62.080536 62.080536 0 0 0 64.591797 237.48047 A 62.080536 62.080536 0 0 0 65.953125 243.53711 A 62.080536 62.080536 0 0 0 67.908203 249.42383 A 62.080536 62.080536 0 0 0 70.443359 255.08984 A 62.080536 62.080536 0 0 0 73.53125 260.47266 A 62.080536 62.080536 0 0 0 77.140625 265.51953 A 62.080536 62.080536 0 0 0 81.236328 270.18164 A 62.080536 62.080536 0 0 0 85.777344 274.41211 A 62.080536 62.080536 0 0 0 90.716797 278.16797 A 62.080536 62.080536 0 0 0 96.007812 281.41016 A 62.080536 62.080536 0 0 0 101.5957 284.10938 A 62.080536 62.080536 0 0 0 107.42383 286.23633 A 62.080536 62.080536 0 0 0 113.43555 287.77344 A 62.080536 62.080536 0 0 0 119.57227 288.69922 A 62.080536 62.080536 0 0 0 125.56055 289 L 125.56055 288.99805 A 98.935326 98.940821 0 0 0 131.35547 288.70898 A 98.935326 98.940821 0 0 0 223.93555 196.42969 A 98.935326 98.940821 0 0 0 224.03516 194.76758 A 62.080536 62.080536 0 0 0 224.26953 190.08594 A 98.935326 98.940821 0 0 0 224.26953 190.07031 A 98.935326 98.940821 0 0 0 223.98242 184.58789 A 62.080536 62.080536 0 0 0 223.36719 179.51953 A 62.080536 62.080536 0 0 0 222.00781 173.46289 A 62.080536 62.080536 0 0 0 220.05078 167.57422 A 62.080536 62.080536 0 0 0 217.51758 161.91016 A 62.080536 62.080536 0 0 0 214.42969 156.52734 A 62.080536 62.080536 0 0 0 210.82031 151.48047 A 62.080536 62.080536 0 0 0 206.72461 146.81836 A 62.080536 62.080536 0 0 0 202.18359 142.58789 A 62.080536 62.080536 0 0 0 197.24414 138.83398 A 62.080536 62.080536 0 0 0 191.95312 135.58984 A 62.080536 62.080536 0 0 0 186.36523 132.89062 A 62.080536 62.080536 0 0 0 180.53711 130.76172 A 62.080536 62.080536 0 0 0 174.52344 129.22656 A 62.080536 62.080536 0 0 0 168.38867 128.30078 A 62.080536 62.080536 0 0 0 162.40039 128 z M 96 192.4082 A 15.999999 15.999999 0 0 1 112 208.4082 A 15.999999 15.999999 0 0 1 96 224.4082 A 15.999999 15.999999 0 0 1 80 208.4082 A 15.999999 15.999999 0 0 1 96 192.4082 z "
       transform="matrix(0.26458333,0,0,0.26458333,0,161.53331)"
       id="path192961" />
    <path
       inkscape:connector-curvature="0"
       style="opacity:1;vector-effect:none;fill:#ffffff;fill-opacity:1;stroke:none;stroke-width:0.5291667;stroke-linecap:round;stroke-linejoin:round;stroke-miterlimit:4;stroke-dasharray:none;stroke-dashoffset:0;stroke-opacity:1;paint-order:normal"
       d="m 22.847184,202.09828 c -8.22115,7.83881 -12.10966,20.35151 -6.077149,30.57332 8.074966,12.54685 26.460156,9.53578 35.688777,-0.27853 -9.513569,8.95686 -26.853506,11.30397 -34.630443,-0.7798 -5.767583,-9.7729 -2.466993,-21.64062 5.018815,-29.51499 z"
       id="path193002" />
    <path
       inkscape:connector-curvature="0"
       id="path193012"
       d="m 111.97389,202.09828 c 8.22115,7.83881 12.10966,20.35151 6.07714,30.57332 -8.07496,12.54685 -26.460151,9.53578 -35.688772,-0.27853 9.513569,8.95686 26.853502,11.30397 34.630442,-0.7798 5.76758,-9.7729 2.46699,-21.64062 -5.01881,-29.51499 z"
       style="opacity:1;vector-effect:none;fill:#ffffff;fill-opacity:1;stroke:none;stroke-width:0.5291667;stroke-linecap:round;stroke-linejoin:round;stroke-miterlimit:4;stroke-dasharray:none;stroke-dashoffset:0;stroke-opacity:1;paint-order:normal" />
    <path
       style="color:#000000;font-style:normal;font-variant:normal;font-weight:normal;font-stretch:normal;font-size:medium;line-height:normal;font-family:sans-serif;font-variant-ligatures:normal;font-variant-position:normal;font-variant-caps:normal;font-variant-numeric:normal;font-variant-alternates:normal;font-feature-settings:normal;text-indent:0;text-align:start;text-decoration:none;text-decoration-line:none;text-decoration-style:solid;text-decoration-color:#000000;letter-spacing:normal;word-spacing:normal;text-transform:none;writing-mode:lr-tb;direction:ltr;text-orientation:mixed;dominant-baseline:auto;baseline-shift:baseline;text-anchor:start;white-space:normal;shape-padding:0;clip-rule:nonzero;display:inline;overflow:visible;visibility:visible;opacity:1;isolation:auto;mix-blend-mode:normal;color-interpolation:sRGB;color-interpolation-filters:linearRGB;solid-color:#000000;solid-opacity:1;vector-effect:none;fill:#ffffff;fill-opacity:1;fill-rule:nonzero;stroke:none;stroke-width:8.46666622;stroke-linecap:round;stroke-linejoin:round;stroke-miterlimit:4;stroke-dasharray:none;stroke-dashoffset:0;stroke-opacity:1;color-rendering:auto;image-rendering:auto;shape-rendering:auto;text-rendering:auto;enable-background:accumulate"
       d="m 50.800781,250.43359 c -5.644444,0 -9.344271,3.35599 -11.460937,5.47266 -2.116667,2.11667 -2.650435,2.99414 -5.472656,2.99414 a 4.2337564,4.2337564 0 1 0 0,8.4668 c 5.644445,0 9.342317,-3.35794 11.458984,-5.47461 2.116667,-2.11667 2.652388,-2.99219 5.474609,-2.99219 2.822222,0 3.35599,0.87552 5.472657,2.99219 2.116666,2.11667 5.814539,5.47461 11.458984,5.47461 5.644445,0 9.344271,-3.35794 11.460937,-5.47461 2.116667,-2.11667 2.650435,-2.99219 5.472657,-2.99219 2.822222,0 3.357942,0.87552 5.474609,2.99219 2.116667,2.11667 5.814539,5.47461 11.458985,5.47461 a 4.2337564,4.2337564 0 1 0 0,-8.4668 c -2.822223,0 -3.35599,-0.87747 -5.472657,-2.99414 -2.116667,-2.11667 -5.816492,-5.47266 -11.460937,-5.47266 -5.644445,0 -9.342318,3.35599 -11.458985,5.47266 -2.116666,2.11667 -2.652387,2.99414 -5.474609,2.99414 -2.822221,0 -3.35599,-0.87747 -5.472656,-2.99414 -2.116667,-2.11667 -5.81454,-5.47266 -11.458985,-5.47266 z"
       id="path193022"
       inkscape:connector-curvature="0" />
  </g>
</svg>
